<?xml version="1.0" encoding="UTF-8"?>
<svg width="64" height="64" viewBox="0 0 64 64" fill="none" xmlns="http://www.w3.org/2000/svg">
  <!-- Background Circle -->
  <circle cx="32" cy="32" r="32" fill="#00968833" />
  
  <!-- Makeup Brush -->
  <g transform="translate(20, 15) rotate(-30)">
    <rect x="0" y="0" width="3" height="20" rx="1.5" fill="#693C1F" />
    <path d="M1.5 0L3 -3H0L1.5 0Z" fill="#693C1F" />
    <path d="M0 -3C0 -3 0 -8 1.5 -11C3 -8 3 -3 3 -3H0Z" fill="#E9C9AD" />
  </g>
  
  <!-- Compact -->
  <g transform="translate(26, 32)">
    <!-- Base -->
    <rect x="0" y="0" width="22" height="18" rx="2" fill="#009688" />
    <rect x="1" y="1" width="20" height="16" rx="1" fill="#FFFFFF" />
    
    <!-- Mirror -->
    <rect x="2" y="2" width="18" height="7" rx="1" fill="#C8E6E6" />
    <line x1="6" y1="5.5" x2="16" y2="5.5" stroke="#009688" stroke-width="0.5" />
    
    <!-- Makeup -->
    <rect x="2" y="10" width="4" height="4" rx="2" fill="#FFB6C1" />
    <rect x="7" y="10" width="4" height="4" rx="2" fill="#D14747" />
    <rect x="12" y="10" width="4" height="4" rx="2" fill="#884400" />
    <rect x="17" y="10" width="3" height="4" rx="1.5" fill="#333333" />
  </g>
  
  <!-- Powder Puff -->
  <circle cx="38" cy="24" r="5" fill="#FFECEC" />
  <circle cx="38" cy="24" r="4" fill="#FFE6E6" />
</svg> 